# xmcd
#
# Track frame offsets:
#	150
#	31955
#	50888
#	76545
#	96565
#	131559
#	174543
#	204062
#	218789
#	243482
#	294726
#
# Disc length: 4431 seconds
#
# Revision: 1
# Processed by: cddbd v1.5.2PL0 Copyright (c) Steve Scherf et al.
# Submitted via: audiograbber 1.83.01
#
DISCID=9b114d0b
DTITLE=Grateful Dead - 79-12-03 Uptown Theatre, Chicago IL
DYEAR=1900
DGENRE=
TTITLE0=Alabama Getaway
TTITLE1=Promised Land
TTITLE2=Brown Eyed Women
TTITLE3=El Paso
TTITLE4=Ramble On Rose
TTITLE5=It's All Over Now
TTITLE6=Jack-A-Roe
TTITLE7=Lazy Lightning
TTITLE8=Supplication
TTITLE9=Althea
TTITLE10=The Music Never Stopped
EXTD=
EXTT0=
EXTT1=
EXTT2=
EXTT3=
EXTT4=
EXTT5=
EXTT6=
EXTT7=
EXTT8=
EXTT9=
EXTT10=
PLAYORDER=
